<?xml version="1.0" encoding="UTF-8"?>
<svg version="1.1" xmlns="http://www.w3.org/2000/svg" width="502" height="502">
<path d="M0 0 C165.66 0 331.32 0 502 0 C502 165.66 502 331.32 502 502 C336.34 502 170.68 502 0 502 C0 336.34 0 170.68 0 0 Z " fill="#FEFEFE" transform="translate(0,0)"/>
<path d="M0 0 C13.53 0 27.06 0 41 0 C41 36.3 41 72.6 41 110 C35.72 111.32 30.44 112.64 25 114 C21.84197609 115.31815364 19.10936617 116.52258617 16.1875 118.1875 C15.13079102 118.77059937 15.13079102 118.77059937 14.05273438 119.36547852 C-7.07159492 131.36508323 -19.99429575 150.11920616 -26.5012207 173.10571289 C-32.34772921 195.3098536 -27.09710688 218.47083947 -16 238 C-13.32564417 242.2630478 -10.2650474 246.17386585 -7 250 C-6.44957031 250.65097656 -5.89914063 251.30195313 -5.33203125 251.97265625 C8.27080777 266.71746201 29.71016921 276.30188354 49.5625 277.37890625 C70.44382971 278.02609423 88.75807882 273.10494762 106 261 C106.83273437 260.42765625 107.66546875 259.8553125 108.5234375 259.265625 C124.08140036 247.78119816 133.29122129 230.45573458 138 212 C138.17660156 211.32864014 138.35320312 210.65728027 138.53515625 209.96557617 C143.68599745 189.02418741 138.82806378 167.00595335 128.03515625 148.66015625 C115.59990621 129.74868196 98.50679834 118.04533049 77 111 C74.67212073 110.63049535 72.33954855 110.28647533 70 110 C69 109 69 109 68.87695217 107.17465878 C68.87787396 106.37177709 68.87879576 105.5688954 68.87974548 104.74168396 C68.87768349 103.36390778 68.87768349 103.36390778 68.87557983 101.95829773 C68.87917511 100.94266251 68.88277039 99.92702728 68.88647461 98.88061523 C68.88632858 97.81733002 68.88618256 96.7540448 68.8860321 95.65853882 C68.88673175 92.12520342 68.89452657 88.59192 68.90234375 85.05859375 C68.90420775 82.61621632 68.90563173 80.17383851 68.90663147 77.73146057 C68.91045811 71.28865536 68.92028963 64.84587252 68.93133545 58.40307617 C68.94154644 51.83447574 68.94612842 45.2658717 68.95117188 38.69726562 C68.96191177 25.79816565 68.97950975 12.89908818 69 0 C82.2 0 95.4 0 109 0 C109 8.25 109 16.5 109 25 C104.05 25 99.1 25 94 25 C94.33 46.12 94.66 67.24 95 89 C99.62 90.98 104.24 92.96 109 95 C136.01072044 110.85411852 155.57863357 134.69584048 164 165 C164.47953125 166.68222656 164.47953125 166.68222656 164.96875 168.3984375 C171.97652599 197.27307005 165.34626941 226.85828236 150.5625 252.0625 C146.72599381 258.3497148 142.19093564 263.76811023 137 269 C136.195625 269.845625 135.39125 270.69125 134.5625 271.5625 C133.716875 272.366875 132.87125 273.17125 132 274 C131.31808594 274.66515625 130.63617188 275.3303125 129.93359375 276.015625 C107.58995035 297.10400754 79.04246873 304.74511834 49.10546875 304.24609375 C25.10104906 303.5048296 1.96188156 293.84617916 -16 278 C-19.57819624 279.57541193 -22.31479973 281.75686314 -25.3125 284.25 C-26.27671875 285.04792969 -27.2409375 285.84585937 -28.234375 286.66796875 C-30.53470768 288.60765605 -32.80409251 290.57453206 -35.0625 292.5625 C-38 295 -38 295 -40 295 C-38.7315625 296.5159375 -38.7315625 296.5159375 -37.4375 298.0625 C-35.49033193 300.84896465 -35.00647894 301.92873168 -34.6875 305.4375 C-37.62743255 313.41731692 -45.56936121 318.40497768 -52.01171875 323.58203125 C-55.21605547 326.17482135 -58.36171526 328.82812307 -61.5 331.5 C-68.14972685 337.14928215 -74.90122829 342.66824989 -81.671875 348.171875 C-87.22044283 352.69411815 -92.70914795 357.27883279 -98.16357422 361.91357422 C-102.45554206 365.55482025 -106.80427979 369.12160755 -111.171875 372.671875 C-113.81961638 374.8515074 -116.43415028 377.06422698 -119.04125977 379.29199219 C-132.84034585 391.06626595 -132.84034585 391.06626595 -135.9140625 390.890625 C-138.80358371 389.65689684 -140.25693979 387.86590234 -142.3125 385.5 C-143.10527344 384.58863281 -143.89804688 383.67726563 -144.71484375 382.73828125 C-147.23622618 379.71693239 -149.65380997 376.636077 -152.03515625 373.50390625 C-155.00433093 369.72012699 -158.13636416 366.07730773 -161.26904297 362.4284668 C-167.00240166 355.72530143 -167.00240166 355.72530143 -166.9921875 352.640625 C-165.6144891 348.97399462 -163.11514724 347.1033331 -160.125 344.75 C-159.53928223 344.27256348 -158.95356445 343.79512695 -158.35009766 343.30322266 C-157.14847429 342.3254598 -155.94256287 341.35294315 -154.73242188 340.38574219 C-152.25915479 338.40740736 -149.81958551 336.38860367 -147.375 334.375 C-145.58380634 332.91608574 -143.79214249 331.45774856 -142 330 C-140.16620121 328.50056908 -138.33287057 327.00056542 -136.5 325.5 C-133.8210008 323.30774854 -131.14175792 321.11580532 -128.4609375 318.92578125 C-119.95449933 311.97414522 -111.47791795 304.98636418 -103 298 C-101.5052261 296.76820761 -100.01043453 295.53643666 -98.515625 294.3046875 C-97.78585449 293.70333984 -97.05608398 293.10199219 -96.30419922 292.48242188 C-94.16971154 290.72432716 -92.03413242 288.96756535 -89.8984375 287.2109375 C-87.48155774 285.22257417 -85.06966531 283.22855049 -82.6640625 281.2265625 C-81.70242187 280.42992187 -80.74078125 279.63328125 -79.75 278.8125 C-78.94046875 278.13832031 -78.1309375 277.46414063 -77.296875 276.76953125 C-72.78351525 273.29240205 -69.63651069 271.44541538 -63.9375 271.62890625 C-60.91094406 272.20858934 -59.13191452 273.86808548 -57 276 C-53.95138679 274.60127971 -51.51336055 272.94076191 -48.92578125 270.8125 C-48.17619141 270.19632812 -47.42660156 269.58015625 -46.65429688 268.9453125 C-45.49510742 267.98238281 -45.49510742 267.98238281 -44.3125 267 C-43.1359082 266.03707031 -43.1359082 266.03707031 -41.93554688 265.0546875 C-37.91724348 261.98696735 -37.91724348 261.98696735 -35 258 C-36.30998195 255.63961777 -37.67102935 253.39423678 -39.125 251.125 C-44.71095907 242.08819304 -48.49903869 232.8431824 -51.75 222.75 C-51.96108398 222.10039307 -52.17216797 221.45078613 -52.38964844 220.78149414 C-60.36829172 194.99501688 -55.31065316 164.40078555 -42.92504883 140.8972168 C-29.94331741 117.30106115 -11.07835853 101.64315363 13 90 C13.66 90 14.32 90 15 90 C15 68.55 15 47.1 15 25 C10.05 25 5.1 25 0 25 C0 16.75 0 8.5 0 0 Z " fill="#386799" transform="translate(214,104)"/>
<path d="M0 0 C1.6108806 16.57417147 -5.74223187 33.26892819 -15.8059082 46.07104492 C-27.94410716 60.82177724 -45.8498275 71.62902626 -65 74 C-91.78178661 75.28820103 -111.69885458 69.70833609 -132 52 C-143.13084353 39.99533324 -149.86157647 25.95365292 -153 10 C-151.01713828 9.2839666 -149.00982188 8.6364436 -147 8 C-146.23042969 7.73574219 -145.46085938 7.47148437 -144.66796875 7.19921875 C-123.79092004 0.89727701 -101.14332159 5.53708709 -81.71337891 14.12890625 C-64.44777123 21.71786846 -43.27884165 23.33489244 -25.4453125 16.4765625 C-16.61379063 12.69162456 -9.8722316 8.42361569 -2.8984375 1.7578125 C-1 0 -1 0 0 0 Z " fill="#F2703E" transform="translate(347,301)"/>
<path d="M0 0 C1.06669922 0.00322266 2.13339844 0.00644531 3.23242188 0.00976562 C4.29525391 -0.00634766 5.35808594 -0.02246094 6.453125 -0.0390625 C7.98163086 -0.0400293 7.98163086 -0.0400293 9.54101562 -0.04101562 C10.4761499 -0.04399658 11.41128418 -0.04697754 12.37475586 -0.05004883 C14.79492188 0.32226562 14.79492188 0.32226562 16.59838867 1.5324707 C18.18307558 3.90287261 18.18252028 5.48139063 18.19335938 8.32226562 C18.19916016 9.77632812 18.19916016 9.77632812 18.20507812 11.25976562 C18.19347656 12.27039063 18.181875 13.28101563 18.16992188 14.32226562 C18.18152344 15.33289063 18.193125 16.34351563 18.20507812 17.38476562 C18.20121094 18.35414062 18.19734375 19.32351562 18.19335938 20.32226562 C18.18828369 21.65257812 18.18828369 21.65257812 18.18310547 23.00976562 C17.79492188 25.32226562 17.79492188 25.32226562 16.59838867 27.11206055 C14.15289636 28.75309282 12.4734683 28.69489475 9.54101562 28.68554688 C8.52201172 28.68490234 7.50300781 28.68425781 6.453125 28.68359375 C5.39029297 28.66748047 4.32746094 28.65136719 3.23242188 28.63476562 C1.63237305 28.63959961 1.63237305 28.63959961 0 28.64453125 C-7.93811284 28.58923091 -7.93811284 28.58923091 -10.20507812 26.32226562 C-10.46386719 23.92382812 -10.46386719 23.92382812 -10.47070312 20.94726562 C-10.47328125 19.87992188 -10.47585938 18.81257813 -10.47851562 17.71289062 C-10.46691406 16.03453125 -10.46691406 16.03453125 -10.45507812 14.32226562 C-10.4628125 13.20335937 -10.47054688 12.08445312 -10.47851562 10.93164062 C-10.4759375 9.86429688 -10.47335937 8.79695313 -10.47070312 7.69726562 C-10.46844727 6.715 -10.46619141 5.73273437 -10.46386719 4.72070312 C-9.8230454 -1.21838483 -4.69214382 0.03268751 0 0 Z " fill="#FDC463" transform="translate(306.205078125,45.677734375)"/>
<path d="M0 0 C8.91 0 17.82 0 27 0 C27 8.91 27 17.82 27 27 C18.09 27 9.18 27 0 27 C0 18.09 0 9.18 0 0 Z " fill="#28A0D1" transform="translate(263,7)"/>
<path d="M0 0 C3.25617858 1.61845562 5.22833816 3.94773385 7.375 6.875 C8.73624093 11.50321917 8.54963256 15.46416166 6.375 19.75 C4.15015729 23.21173078 1.96781133 24.70283091 -2 26 C-6.41738238 26.70678118 -9.26330566 26.36139722 -13.3125 24.375 C-17.35070586 20.80635297 -18.77134963 17.82920294 -19.4375 12.5 C-18.82479534 7.59836269 -16.82211601 4.6564691 -13.1953125 1.359375 C-9.12383003 -1.16175649 -4.60966333 -0.72046836 0 0 Z " fill="#F27240" transform="translate(266,280)"/>
<path d="M0 0 C3.45211024 2.30140683 4.9826251 4.1448704 6.8125 7.875 C7.62101635 14.24206622 6.64439904 17.73218813 2.8125 22.875 C-1.50483382 25.8491633 -4.99826076 26.5236549 -10.1875 25.875 C-14.52583918 23.62240081 -17.39037362 21.4676563 -19.1875 16.875 C-19.81001561 12.74564645 -20.16074058 8.76355017 -18.203125 4.96484375 C-13.1806386 -1.34426725 -7.62990485 -2.69290759 0 0 Z " fill="#3387B8" transform="translate(303.1875,250.125)"/>
<path d="M0 0 C3.125 1.8125 3.125 1.8125 5 5 C5.95722984 10.32060254 5.8917249 14.48406766 3.125 19.1875 C-1.30924638 21.7593629 -4.99768685 21.97586109 -10 21 C-13.125 19.1875 -13.125 19.1875 -15 16 C-15.95722984 10.67939746 -15.8917249 6.51593234 -13.125 1.8125 C-8.69075362 -0.7593629 -5.00231315 -0.97586109 0 0 Z " fill="#2F97C8" transform="translate(278,81)"/>
<path d="M0 0 C2.875 2.4375 2.875 2.4375 5 5 C5.33 5.33 5.66 5.66 6 6 C6.45439818 10.46824875 6.68521764 13.72364711 4.0625 17.5 C0.48238636 20.42254174 -1.33686181 20.84613013 -5.84375 20.515625 C-9.46739079 19.6491022 -10.93805301 18.02848464 -13 15 C-14.0625 11.5625 -14.0625 11.5625 -14 8 C-10.58239405 1.53096016 -7.39661143 -0.89269448 0 0 Z " fill="#F58241" transform="translate(260,235)"/>
<path d="M0 0 C2.64 0 5.28 0 8 0 C8.27972656 0.79921875 8.55945313 1.5984375 8.84765625 2.421875 C16.01368321 22.05356302 26.76392978 35.95890454 45 46 C46.65128662 46.70389966 48.31283476 47.38705982 50 48 C46.12462067 49.27601359 44.1209165 48.4434503 40.46679688 46.65039062 C39.77650391 46.29138672 39.08621094 45.93238281 38.375 45.5625 C37.66150391 45.19705078 36.94800781 44.83160156 36.21289062 44.45507812 C30.20966668 41.28776631 25.009055 37.59389008 20 33 C19.29488281 32.37480469 18.58976562 31.74960937 17.86328125 31.10546875 C9.27572134 23.07405558 3.84403241 13.03609304 0 2 C0 1.34 0 0.68 0 0 Z " fill="#FEF8F5" transform="translate(201,314)"/>
<path d="M0 0 C0.86625 -0.00773438 1.7325 -0.01546875 2.625 -0.0234375 C5 0.375 5 0.375 6.7890625 1.5859375 C8.39038277 3.95175906 8.40035579 5.53515158 8.375 8.375 C8.38273437 9.24125 8.39046875 10.1075 8.3984375 11 C8 13.375 8 13.375 6.7890625 15.16015625 C4.43010496 16.76198113 2.83613592 16.80827956 0 16.8125 C-0.86625 16.83183594 -1.7325 16.85117188 -2.625 16.87109375 C-5 16.375 -5 16.375 -6.7890625 14.6328125 C-8.129559 12.13343516 -8.40360403 10.62999687 -8.375 7.8125 C-8.38273437 7.04808594 -8.39046875 6.28367188 -8.3984375 5.49609375 C-7.48635448 0.64059298 -4.52791938 -0.04042785 0 0 Z " fill="#F89E41" transform="translate(267,157.625)"/>
<path d="M0 0 C1.60101563 -0.0309375 1.60101563 -0.0309375 3.234375 -0.0625 C4.25789063 -0.06765625 5.28140625 -0.0728125 6.3359375 -0.078125 C7.27743652 -0.0874707 8.21893555 -0.09681641 9.18896484 -0.10644531 C11.625 0.25 11.625 0.25 13.43725586 1.45141602 C15.03305657 3.86791424 14.9679595 5.47266856 14.91796875 8.35546875 C14.90830078 9.33837891 14.89863281 10.32128906 14.88867188 11.33398438 C14.86353516 12.35814453 14.83839844 13.38230469 14.8125 14.4375 C14.79219727 15.99114258 14.79219727 15.99114258 14.77148438 17.57617188 C14.73611389 20.13463699 14.68675544 22.6920578 14.625 25.25 C14.295 25.25 13.965 25.25 13.625 25.25 C13.625 18.98 13.625 12.71 13.625 6.25 C4.715 6.25 -4.195 6.25 -13.375 6.25 C-11.69796969 -2.13515154 -7.6497001 0.03668921 0 0 Z " fill="#FDCD7B" transform="translate(309.375,45.75)"/>
<path d="M0 0 C4.03520597 1.58962659 8.01811282 3.28232318 12 5 C9.44855176 5.93045933 8.25993522 6.08564091 5.640625 5.22265625 C4.85171875 4.83980469 4.0628125 4.45695312 3.25 4.0625 C2.45078125 3.68222656 1.6515625 3.30195313 0.828125 2.91015625 C0.22484375 2.60980469 -0.3784375 2.30945313 -1 2 C-0.67 1.34 -0.34 0.68 0 0 Z " fill="#FCE2D8" transform="translate(239,357)"/>
</svg>
