 <svg  version="1.0" xmlns="http://www.w3.org/2000/svg"  width="300.000000pt" height="296.000000pt" viewBox="0 0 300.000000 296.000000"  preserveAspectRatio="xMidYMid meet">  <g transform="translate(0.000000,296.000000) scale(0.050000,-0.050000)" fill="#ffffff" stroke="none"> <path d="M2490 5301 c-162 -68 -244 -272 -180 -449 l27 -78 -156 -272 c-326 -570 -331 -619 -47 -564 161 31 174 47 410 469 88 159 137 226 183 250 399 209 176 816 -237 644z m252 -193 c25 -23 38 -61 38 -115 0 -228 -321 -242 -327 -15 -4 159 171 237 289 130z"/> <path d="M1697 4975 c-89 -72 -497 -772 -497 -852 0 -82 722 -1343 769 -1343 72 0 181 227 165 344 -6 47 -76 190 -183 372 -94 162 -210 368 -256 457 l-84 164 36 76 c20 43 116 222 215 400 185 334 199 374 146 395 -57 22 -280 13 -311 -13z"/> <path d="M3209 4982 c-52 -23 -89 -78 -493 -751 -363 -605 -361 -599 -208 -622 213 -32 303 41 515 413 81 143 197 333 257 424 l110 164 475 5 475 6 0 44 c0 65 -124 261 -181 288 -61 28 -892 54 -950 29z"/> <path d="M4473 4430 c-31 -16 -84 -52 -116 -80 -59 -49 -65 -50 -424 -51 -565 -2 -592 -14 -464 -207 94 -141 130 -152 502 -152 292 0 308 -2 362 -47 192 -160 398 -147 529 33 186 257 -115 647 -389 504z m225 -182 c119 -99 45 -308 -108 -308 -76 0 -170 93 -170 167 0 162 159 242 278 141z"/> <path d="M738 3955 c-255 -171 -131 -615 172 -615 36 0 76 -55 218 -301 337 -584 330 -578 437 -369 81 157 65 225 -130 559 -158 270 -175 309 -175 401 0 292 -296 476 -522 325z m248 -117 c116 -52 143 -192 56 -280 -97 -96 -239 -59 -283 74 -43 130 103 263 227 206z"/> <path d="M3340 3678 c0 -63 98 -232 157 -271 59 -38 389 -64 847 -66 340 -1 309 23 584 -451 232 -402 242 -410 331 -281 134 194 133 198 -125 663 -244 441 -218 414 -418 431 -443 37 -1376 20 -1376 -25z"/> <path d="M560 3055 c-116 -175 -107 -222 127 -631 108 -191 218 -370 243 -400 l46 -54 749 -6 c864 -8 830 -15 740 156 -106 204 -155 217 -811 219 -541 1 -475 -32 -694 351 -301 529 -294 523 -400 365z"/> <path d="M4286 3045 c-99 -168 -84 -265 85 -565 186 -329 193 -348 177 -454 -43 -290 260 -496 509 -345 233 142 169 550 -94 608 -79 18 -91 34 -283 381 -284 515 -302 532 -394 375z m677 -927 c70 -37 103 -145 69 -226 -57 -138 -253 -135 -311 6 -60 144 104 294 242 220z"/> <path d="M3789 2850 c-149 -195 -135 -280 119 -727 344 -604 336 -528 96 -936 -176 -298 -256 -461 -236 -481 35 -35 326 -18 369 22 47 42 386 608 446 743 52 120 25 180 -507 1108 -212 370 -212 370 -287 271z"/> <path d="M3163 2086 c-80 -16 -188 -147 -340 -416 -81 -143 -195 -333 -253 -422 l-105 -162 -138 -13 c-75 -7 -287 -13 -471 -13 -389 0 -382 4 -285 -178 93 -178 60 -168 609 -177 l470 -8 53 56 c88 94 737 1231 737 1291 0 44 -147 66 -277 42z"/> <path d="M1070 1852 c-335 -148 -234 -632 132 -632 109 0 278 84 278 138 0 9 211 21 469 25 542 9 541 9 469 149 -99 192 -133 205 -568 220 -257 9 -390 21 -410 38 -105 88 -255 113 -370 62z m211 -153 c155 -83 95 -319 -81 -319 -103 0 -190 95 -172 189 23 117 153 184 253 130z"/> <path d="M3662 1739 c-111 -23 -184 -91 -277 -259 -134 -241 -267 -438 -306 -450 -236 -75 -292 -414 -96 -579 265 -223 647 76 510 398 -24 57 -18 72 123 310 218 368 308 545 288 565 -28 28 -146 35 -242 15z m-395 -881 c99 -45 122 -190 44 -269 -106 -106 -291 -32 -291 117 0 132 124 208 247 152z"/> </g> </svg> 